<?xml version="1.0" encoding="UTF-8"?>
<svg xmlns="http://www.w3.org/2000/svg" xmlns:xlink="http://www.w3.org/1999/xlink" viewBox="0 0 100 100" width="100px" height="100px">
<g id="surface53348213">
<path style=" stroke:none;fill-rule:nonzero;fill:rgb(100%,100%,100%);fill-opacity:1;" d="M 50 8 C 51.132812 8 52.195312 8.4375 52.992188 9.242188 L 90.757812 47.007812 C 92.414062 48.65625 92.414062 51.34375 90.757812 52.992188 L 52.992188 90.757812 C 52.195312 91.5625 51.132812 92 50 92 C 48.867188 92 47.804688 91.5625 47.007812 90.757812 L 9.242188 52.992188 C 7.585938 51.34375 7.585938 48.65625 9.242188 47.007812 L 33.882812 22.367188 L 38.429688 26.914062 C 37.335938 30.976562 38.4375 35.40625 41.515625 38.484375 C 42.25 39.21875 43.085938 39.851562 44 40.375 L 44 59.632812 C 40.359375 61.734375 38 65.648438 38 70 C 38 76.617188 43.382812 82 50 82 C 56.617188 82 62 76.617188 62 70 C 62 65.648438 59.640625 61.734375 56 59.632812 L 56 44.484375 L 58.429688 46.914062 C 57.335938 50.976562 58.4375 55.40625 61.515625 58.484375 C 63.78125 60.75 66.796875 62 70 62 C 73.203125 62 76.21875 60.75 78.484375 58.484375 C 83.164062 53.804688 83.164062 46.195312 78.484375 41.515625 C 76.226562 39.257812 73.234375 38.015625 70.039062 38.015625 C 68.984375 38.015625 67.929688 38.15625 66.914062 38.429688 L 61.570312 33.085938 C 62.664062 29.023438 61.5625 24.59375 58.484375 21.515625 C 56.226562 19.257812 53.234375 18.015625 50.039062 18.015625 C 48.984375 18.015625 47.929688 18.15625 46.914062 18.429688 L 42.367188 13.882812 L 47.007812 9.242188 C 47.804688 8.4375 48.867188 8 50 8 M 50 4 C 47.890625 4 45.78125 4.804688 44.179688 6.414062 L 36.710938 13.882812 L 45.953125 23.125 C 47.210938 22.390625 48.625 22.015625 50.039062 22.015625 C 52.070312 22.015625 54.101562 22.789062 55.65625 24.34375 C 58.289062 26.976562 58.671875 30.976562 56.867188 34.039062 L 65.953125 43.125 C 67.210938 42.390625 68.625 42.015625 70.039062 42.015625 C 72.070312 42.015625 74.101562 42.789062 75.65625 44.34375 C 78.78125 47.46875 78.78125 52.53125 75.65625 55.65625 C 74.09375 57.21875 72.046875 58 70 58 C 67.953125 58 65.90625 57.21875 64.34375 55.65625 C 61.710938 53.023438 61.328125 49.023438 63.132812 45.953125 L 54.046875 36.867188 C 53.398438 37.25 52.710938 37.53125 52 37.710938 L 52 62.28125 C 55.445312 63.171875 58 66.273438 58 70 C 58 74.421875 54.421875 78 50 78 C 45.585938 78 42 74.421875 42 70 C 42 66.273438 44.554688 63.171875 48 62.28125 L 48 37.710938 C 46.664062 37.367188 45.390625 36.703125 44.34375 35.65625 C 41.710938 33.023438 41.328125 29.023438 43.132812 25.960938 L 33.882812 16.710938 L 6.414062 44.179688 C 3.195312 47.390625 3.195312 52.609375 6.414062 55.820312 L 44.179688 93.585938 C 45.78125 95.195312 47.890625 96 50 96 C 52.109375 96 54.21875 95.195312 55.820312 93.585938 L 93.585938 55.820312 C 96.804688 52.609375 96.804688 47.390625 93.585938 44.179688 L 55.820312 6.414062 C 54.21875 4.804688 52.109375 4 50 4 Z M 50 4 "/>
</g>
</svg>
